<mxfile host="Electron" modified="2023-10-22T15:23:01.448Z" agent="Mozilla/5.0 (Windows NT 10.0; Win64; x64) AppleWebKit/537.36 (KHTML, like Gecko) draw.io/22.0.3 Chrome/114.0.5735.289 Electron/25.8.4 Safari/537.36" etag="W3PP30K3mncw0A5jN13A" version="22.0.3" type="device">
  <diagram name="Page-1" id="N-N7shyIx3_a_wp4iVAp">
    <mxGraphModel dx="1098" dy="1928" grid="1" gridSize="10" guides="1" tooltips="1" connect="1" arrows="1" fold="1" page="1" pageScale="1" pageWidth="850" pageHeight="1100" math="0" shadow="0">
      <root>
        <mxCell id="0" />
        <mxCell id="1" parent="0" />
        <mxCell id="bgTVU1fI_sASql_rgWul-1" value="AWS Cloud" style="sketch=0;outlineConnect=0;gradientColor=none;html=1;whiteSpace=wrap;fontSize=12;fontStyle=0;shape=mxgraph.aws4.group;grIcon=mxgraph.aws4.group_aws_cloud;strokeColor=#AAB7B8;fillColor=none;verticalAlign=top;align=left;spacingLeft=30;fontColor=#AAB7B8;dashed=0;movable=1;resizable=1;rotatable=1;deletable=1;editable=1;locked=0;connectable=1;" vertex="1" parent="1">
          <mxGeometry x="130" y="80" width="640" height="670" as="geometry" />
        </mxCell>
        <mxCell id="bgTVU1fI_sASql_rgWul-2" value="VPC" style="points=[[0,0],[0.25,0],[0.5,0],[0.75,0],[1,0],[1,0.25],[1,0.5],[1,0.75],[1,1],[0.75,1],[0.5,1],[0.25,1],[0,1],[0,0.75],[0,0.5],[0,0.25]];outlineConnect=0;gradientColor=none;html=1;whiteSpace=wrap;fontSize=12;fontStyle=0;container=1;pointerEvents=0;collapsible=0;recursiveResize=0;shape=mxgraph.aws4.group;grIcon=mxgraph.aws4.group_vpc;strokeColor=#248814;fillColor=none;verticalAlign=top;align=left;spacingLeft=30;fontColor=#AAB7B8;dashed=0;movable=1;resizable=1;rotatable=1;deletable=1;editable=1;locked=0;connectable=1;" vertex="1" parent="1">
          <mxGeometry x="170" y="140" width="560" height="590" as="geometry" />
        </mxCell>
        <mxCell id="bgTVU1fI_sASql_rgWul-3" value="Public subnet" style="points=[[0,0],[0.25,0],[0.5,0],[0.75,0],[1,0],[1,0.25],[1,0.5],[1,0.75],[1,1],[0.75,1],[0.5,1],[0.25,1],[0,1],[0,0.75],[0,0.5],[0,0.25]];outlineConnect=0;gradientColor=none;html=1;whiteSpace=wrap;fontSize=12;fontStyle=0;container=1;pointerEvents=0;collapsible=0;recursiveResize=0;shape=mxgraph.aws4.group;grIcon=mxgraph.aws4.group_security_group;grStroke=0;strokeColor=#248814;fillColor=#E9F3E6;verticalAlign=top;align=left;spacingLeft=30;fontColor=#248814;dashed=0;" vertex="1" parent="bgTVU1fI_sASql_rgWul-2">
          <mxGeometry x="110" y="70" width="340" height="240" as="geometry" />
        </mxCell>
        <mxCell id="bgTVU1fI_sASql_rgWul-4" value="Private subnet" style="points=[[0,0],[0.25,0],[0.5,0],[0.75,0],[1,0],[1,0.25],[1,0.5],[1,0.75],[1,1],[0.75,1],[0.5,1],[0.25,1],[0,1],[0,0.75],[0,0.5],[0,0.25]];outlineConnect=0;gradientColor=none;html=1;whiteSpace=wrap;fontSize=12;fontStyle=0;container=1;pointerEvents=0;collapsible=0;recursiveResize=0;shape=mxgraph.aws4.group;grIcon=mxgraph.aws4.group_security_group;grStroke=0;strokeColor=#147EBA;fillColor=#E6F2F8;verticalAlign=top;align=left;spacingLeft=30;fontColor=#147EBA;dashed=0;" vertex="1" parent="bgTVU1fI_sASql_rgWul-2">
          <mxGeometry x="30" y="330" width="490" height="240" as="geometry" />
        </mxCell>
        <mxCell id="bgTVU1fI_sASql_rgWul-29" value="Internet Gateway" style="sketch=0;outlineConnect=0;fontColor=#232F3E;gradientColor=none;fillColor=#8C4FFF;strokeColor=none;dashed=0;verticalLabelPosition=top;verticalAlign=bottom;align=left;html=1;fontSize=12;fontStyle=0;aspect=fixed;pointerEvents=1;shape=mxgraph.aws4.internet_gateway;labelPosition=right;spacingBottom=-26;" vertex="1" parent="bgTVU1fI_sASql_rgWul-2">
          <mxGeometry x="251" y="-30" width="58" height="58" as="geometry" />
        </mxCell>
        <mxCell id="bgTVU1fI_sASql_rgWul-31" value="" style="edgeStyle=orthogonalEdgeStyle;rounded=0;orthogonalLoop=1;jettySize=auto;html=1;startArrow=classic;startFill=1;" edge="1" parent="1" source="bgTVU1fI_sASql_rgWul-5" target="bgTVU1fI_sASql_rgWul-29">
          <mxGeometry relative="1" as="geometry" />
        </mxCell>
        <mxCell id="bgTVU1fI_sASql_rgWul-5" value="Resolução de de nome (DNS)" style="sketch=0;points=[[0,0,0],[0.25,0,0],[0.5,0,0],[0.75,0,0],[1,0,0],[0,1,0],[0.25,1,0],[0.5,1,0],[0.75,1,0],[1,1,0],[0,0.25,0],[0,0.5,0],[0,0.75,0],[1,0.25,0],[1,0.5,0],[1,0.75,0]];outlineConnect=0;fontColor=#232F3E;fillColor=#8C4FFF;strokeColor=#ffffff;dashed=0;verticalLabelPosition=top;verticalAlign=bottom;align=center;html=1;fontSize=12;fontStyle=0;aspect=fixed;shape=mxgraph.aws4.resourceIcon;resIcon=mxgraph.aws4.route_53;labelPosition=center;" vertex="1" parent="1">
          <mxGeometry x="420" y="-10" width="60" height="60" as="geometry" />
        </mxCell>
        <mxCell id="bgTVU1fI_sASql_rgWul-9" value="Auto Scaling group - (Min 1 Intancia)" style="points=[[0,0],[0.25,0],[0.5,0],[0.75,0],[1,0],[1,0.25],[1,0.5],[1,0.75],[1,1],[0.75,1],[0.5,1],[0.25,1],[0,1],[0,0.75],[0,0.5],[0,0.25]];outlineConnect=0;gradientColor=none;html=1;whiteSpace=wrap;container=1;pointerEvents=0;collapsible=0;recursiveResize=0;shape=mxgraph.aws4.groupCenter;grIcon=mxgraph.aws4.group_auto_scaling_group;grStroke=1;strokeColor=#D86613;fillColor=none;verticalAlign=top;align=center;dashed=1;spacingTop=-1;labelPosition=center;verticalLabelPosition=bottom;horizontal=1;spacing=2;fontColor=#D86613;fontSize=12;spacingLeft=0;spacingRight=1;" vertex="1" parent="1">
          <mxGeometry x="370" y="520" width="290" height="170" as="geometry" />
        </mxCell>
        <mxCell id="bgTVU1fI_sASql_rgWul-11" value="EC2 - API (Backend)" style="outlineConnect=0;dashed=0;verticalLabelPosition=bottom;verticalAlign=top;align=center;html=1;shape=mxgraph.aws3.ec2;fillColor=#F58534;gradientColor=none;" vertex="1" parent="bgTVU1fI_sASql_rgWul-9">
          <mxGeometry x="109" y="45" width="65.81" height="80" as="geometry" />
        </mxCell>
        <mxCell id="bgTVU1fI_sASql_rgWul-16" value="Auto Scaling group - (Min 1 Intancia)" style="points=[[0,0],[0.25,0],[0.5,0],[0.75,0],[1,0],[1,0.25],[1,0.5],[1,0.75],[1,1],[0.75,1],[0.5,1],[0.25,1],[0,1],[0,0.75],[0,0.5],[0,0.25]];outlineConnect=0;gradientColor=none;html=1;whiteSpace=wrap;fontSize=12;fontStyle=0;container=1;pointerEvents=0;collapsible=0;recursiveResize=0;shape=mxgraph.aws4.groupCenter;grIcon=mxgraph.aws4.group_auto_scaling_group;grStroke=1;strokeColor=#D86613;fillColor=none;verticalAlign=top;align=center;fontColor=#D86613;dashed=1;spacingTop=-1;labelPosition=center;verticalLabelPosition=bottom;" vertex="1" parent="1">
          <mxGeometry x="334" y="242" width="236" height="178" as="geometry" />
        </mxCell>
        <mxCell id="bgTVU1fI_sASql_rgWul-21" value="EC2 - Frontend" style="outlineConnect=0;dashed=0;verticalLabelPosition=middle;verticalAlign=middle;align=left;html=1;shape=mxgraph.aws3.ec2;fillColor=#F58534;gradientColor=none;labelPosition=right;" vertex="1" parent="bgTVU1fI_sASql_rgWul-16">
          <mxGeometry x="83.08999999999997" y="58" width="65.81" height="80" as="geometry" />
        </mxCell>
        <mxCell id="bgTVU1fI_sASql_rgWul-24" value="RDS&lt;br&gt;DB: CESEP" style="outlineConnect=0;dashed=0;verticalLabelPosition=bottom;verticalAlign=top;align=center;html=1;shape=mxgraph.aws3.rds;fillColor=#2E73B8;gradientColor=none;" vertex="1" parent="1">
          <mxGeometry x="250" y="564" width="72" height="81" as="geometry" />
        </mxCell>
        <mxCell id="bgTVU1fI_sASql_rgWul-25" style="edgeStyle=orthogonalEdgeStyle;rounded=0;orthogonalLoop=1;jettySize=auto;html=1;strokeColor=none;jumpStyle=arc;" edge="1" parent="1" source="bgTVU1fI_sASql_rgWul-11" target="bgTVU1fI_sASql_rgWul-24">
          <mxGeometry relative="1" as="geometry" />
        </mxCell>
        <mxCell id="bgTVU1fI_sASql_rgWul-27" style="edgeStyle=orthogonalEdgeStyle;rounded=0;orthogonalLoop=1;jettySize=auto;html=1;strokeColor=default;comic=0;shadow=0;endArrow=classic;endFill=1;startArrow=classic;startFill=1;" edge="1" parent="1" source="bgTVU1fI_sASql_rgWul-11" target="bgTVU1fI_sASql_rgWul-24">
          <mxGeometry relative="1" as="geometry" />
        </mxCell>
        <mxCell id="bgTVU1fI_sASql_rgWul-30" value="" style="edgeStyle=orthogonalEdgeStyle;rounded=0;orthogonalLoop=1;jettySize=auto;html=1;endArrow=classic;endFill=1;startArrow=classic;startFill=1;" edge="1" parent="1" source="bgTVU1fI_sASql_rgWul-29" target="bgTVU1fI_sASql_rgWul-21">
          <mxGeometry relative="1" as="geometry" />
        </mxCell>
        <mxCell id="bgTVU1fI_sASql_rgWul-36" style="edgeStyle=orthogonalEdgeStyle;rounded=0;orthogonalLoop=1;jettySize=auto;html=1;" edge="1" parent="1" source="bgTVU1fI_sASql_rgWul-35" target="bgTVU1fI_sASql_rgWul-5">
          <mxGeometry relative="1" as="geometry" />
        </mxCell>
        <mxCell id="bgTVU1fI_sASql_rgWul-35" value="Usuarios" style="sketch=0;outlineConnect=0;fontColor=#232F3E;gradientColor=none;fillColor=#232F3D;strokeColor=none;dashed=0;verticalLabelPosition=bottom;verticalAlign=top;align=center;html=1;fontSize=12;fontStyle=0;aspect=fixed;pointerEvents=1;shape=mxgraph.aws4.users;" vertex="1" parent="1">
          <mxGeometry x="230" y="-19" width="78" height="78" as="geometry" />
        </mxCell>
        <mxCell id="bgTVU1fI_sASql_rgWul-38" style="edgeStyle=orthogonalEdgeStyle;rounded=0;orthogonalLoop=1;jettySize=auto;html=1;" edge="1" parent="1" source="bgTVU1fI_sASql_rgWul-21" target="bgTVU1fI_sASql_rgWul-11">
          <mxGeometry relative="1" as="geometry" />
        </mxCell>
      </root>
    </mxGraphModel>
  </diagram>
</mxfile>
